<svg width="18" height="15" viewBox="0 0 18 15" fill="none" xmlns="http://www.w3.org/2000/svg">
<path d="M15.0254 1.93628C13.91 1.4245 12.7139 1.04743 11.4634 0.831472C11.4406 0.827304 11.4178 0.83772 11.4061 0.858553C11.2523 1.13215 11.0819 1.48907 10.9626 1.76962C9.61748 1.56824 8.2793 1.56824 6.9618 1.76962C6.84245 1.48284 6.66587 1.13215 6.51136 0.858553C6.49962 0.838415 6.47687 0.827999 6.4541 0.831472C5.20421 1.04674 4.00812 1.42381 2.89204 1.93628C2.88237 1.94045 2.87409 1.9474 2.8686 1.95642C0.599869 5.34585 -0.0216304 8.65197 0.283256 11.9171C0.284636 11.9331 0.293603 11.9484 0.306019 11.9581C1.80286 13.0573 3.25281 13.7247 4.67583 14.167C4.6986 14.1739 4.72273 14.1656 4.73723 14.1468C5.07384 13.6872 5.37391 13.2025 5.63118 12.6927C5.64636 12.6629 5.63187 12.6275 5.60084 12.6157C5.12489 12.4351 4.67169 12.215 4.23574 11.965C4.20126 11.9449 4.1985 11.8956 4.23022 11.8719C4.32196 11.8032 4.41372 11.7317 4.50132 11.6595C4.51717 11.6463 4.53925 11.6435 4.55789 11.6518C7.42187 12.9594 10.5225 12.9594 13.3527 11.6518C13.3713 11.6428 13.3934 11.6456 13.4099 11.6588C13.4976 11.731 13.5893 11.8032 13.6817 11.8719C13.7134 11.8956 13.7114 11.9449 13.6769 11.965C13.2409 12.2199 12.7877 12.4351 12.3111 12.615C12.2801 12.6268 12.2663 12.6629 12.2815 12.6927C12.5442 13.2017 12.8443 13.6865 13.1747 14.1462C13.1885 14.1656 13.2133 14.1739 13.2361 14.167C14.666 13.7247 16.116 13.0573 17.6128 11.9581C17.6259 11.9484 17.6342 11.9338 17.6356 11.9178C18.0005 8.14294 17.0244 4.86394 15.0482 1.95711C15.0433 1.9474 15.0351 1.94045 15.0254 1.93628ZM6.05887 9.92898C5.19661 9.92898 4.48614 9.13736 4.48614 8.16517C4.48614 7.19299 5.18284 6.40137 6.05887 6.40137C6.94178 6.40137 7.64538 7.19994 7.63158 8.16517C7.63158 9.13736 6.93488 9.92898 6.05887 9.92898ZM11.8738 9.92898C11.0115 9.92898 10.3011 9.13736 10.3011 8.16517C10.3011 7.19299 10.9977 6.40137 11.8738 6.40137C12.7567 6.40137 13.4603 7.19994 13.4465 8.16517C13.4465 9.13736 12.7567 9.92898 11.8738 9.92898Z" fill="white"/>
</svg>
