<svg width="18" height="15" viewBox="0 0 18 15" fill="none" xmlns="http://www.w3.org/2000/svg">
<path d="M15.7139 4.03768C15.7249 4.18868 15.7249 4.33968 15.7249 4.49168C15.7249 9.09668 12.2189 14.4037 5.81194 14.4037C3.83794 14.4037 2.00394 13.8317 0.460938 12.8397C0.741937 12.8717 1.01194 12.8817 1.30294 12.8817C2.93194 12.8817 4.42994 12.3317 5.62794 11.3937C4.09594 11.3617 2.81294 10.3577 2.37094 8.97668C2.58594 9.00868 2.80194 9.03068 3.02694 9.03068C3.34094 9.03068 3.65394 8.98768 3.94494 8.91268C2.34894 8.58868 1.15094 7.18668 1.15094 5.49368C1.15094 5.48268 1.15094 5.46068 1.15094 5.45068C1.61494 5.70868 2.15394 5.87068 2.72594 5.89268C1.78794 5.26668 1.17294 4.19868 1.17294 2.99168C1.17294 2.34468 1.34594 1.75068 1.64794 1.23268C3.36294 3.34768 5.94094 4.72868 8.83194 4.87868C8.77694 4.61968 8.74494 4.34968 8.74494 4.07968C8.74494 2.16068 10.2989 0.59668 12.2289 0.59668C13.2319 0.59668 14.1379 1.01668 14.7749 1.69668C15.5619 1.54568 16.3159 1.25468 16.9859 0.85568C16.7269 1.66468 16.1769 2.34468 15.4539 2.77468C16.1559 2.69968 16.8349 2.50568 17.4609 2.23568C16.9859 2.92568 16.3929 3.54168 15.7139 4.03768Z" fill="white"/>
</svg>
