<svg width="16" height="11" viewBox="0 0 16 11" fill="none" xmlns="http://www.w3.org/2000/svg">
<path fill-rule="evenodd" clip-rule="evenodd" d="M14.305 0.560878C14.95 0.734176 15.4603 1.24445 15.6336 1.8895C15.9513 3.06409 15.9609 5.4999 15.9609 5.4999C15.9609 5.4999 15.9609 7.94535 15.6432 9.1103C15.4699 9.75536 14.9597 10.2656 14.3146 10.4389C13.1496 10.7566 8.46094 10.7566 8.46094 10.7566C8.46094 10.7566 3.77223 10.7566 2.60728 10.4389C1.96222 10.2656 1.45195 9.75536 1.27865 9.1103C0.960938 7.93572 0.960938 5.4999 0.960938 5.4999C0.960938 5.4999 0.960938 3.06409 1.26902 1.89913C1.44232 1.25408 1.95259 0.743807 2.59765 0.570509C3.76261 0.252789 8.45131 0.243164 8.45131 0.243164C8.45131 0.243164 13.14 0.243164 14.305 0.560878ZM10.8486 5.49991L6.95901 7.75279V3.24702L10.8486 5.49991Z" fill="white"/>
</svg>
