<svg width="14" height="13" viewBox="0 0 14 13" fill="none" xmlns="http://www.w3.org/2000/svg">
<path d="M1.54534 7.28467H6.14076V11.8801C6.14076 12.3472 6.52497 12.7389 6.99958 12.7389C7.47419 12.7389 7.8584 12.3472 7.8584 11.8801V7.28467H12.4538C12.9209 7.28467 13.3126 6.90046 13.3126 6.42585C13.3126 5.95124 12.9209 5.56703 12.4538 5.56703H7.8584V0.97161C7.8584 0.504534 7.47419 0.112793 6.99958 0.112793C6.52497 0.112793 6.14076 0.504534 6.14076 0.97161V5.56703H1.54534C1.07826 5.56703 0.686523 5.95124 0.686523 6.42585C0.686523 6.90046 1.07826 7.28467 1.54534 7.28467Z" fill="#F8F2FF"/>
</svg>
