<svg width="113" height="91" viewBox="0 0 113 91" fill="none" xmlns="http://www.w3.org/2000/svg">
<g opacity="0.6" clip-path="url(#clip0_5793_6993)">
<path fill-rule="evenodd" clip-rule="evenodd" d="M35.698 90.8947H26.9463V82.9043H35.5603V84.674H29.288V86.0346H35.2258V87.7037H29.2915V89.0799H35.698V90.8981V90.8947Z" fill="white"/>
<path fill-rule="evenodd" clip-rule="evenodd" d="M86.0515 90.8941H77.4375V83.0303H85.9174V84.7635H79.7461V86.1016H85.5898V87.743H79.7461V89.0984H86.0515V90.8889V90.8941Z" fill="white"/>
<path fill-rule="evenodd" clip-rule="evenodd" d="M47.5654 90.8947H44.025L39.3626 84.9184H39.3173V90.8947H37V82.9043H40.5979L45.2029 88.8875H45.2482V82.9043H47.5707V90.8947H47.5654Z" fill="white"/>
<path fill-rule="evenodd" clip-rule="evenodd" d="M75.6277 90.8947H72.0873L67.4248 84.9184H67.3795V90.8947H65.0518V82.9043H68.6497L73.2546 88.8875H73.2999V82.9043H75.6277V90.8947Z" fill="white"/>
<path fill-rule="evenodd" clip-rule="evenodd" d="M54.4071 90.9996C53.6649 90.9996 53.0261 90.9811 52.4906 90.9441C52.0256 90.9206 51.564 90.8521 51.1124 90.7396C50.7813 90.6575 50.4695 90.5121 50.1942 90.3115C49.9533 90.1247 49.7639 89.8802 49.6436 89.6009C49.4988 89.2625 49.4066 88.9043 49.3701 88.5384C49.3212 88.0477 49.2985 87.5547 49.3021 87.0616V86.8276C49.2986 86.331 49.3224 85.8345 49.3736 85.3405C49.4079 84.9731 49.4984 84.613 49.6419 84.2728C49.764 83.9945 49.9538 83.7509 50.1942 83.5639C50.4698 83.3646 50.7825 83.222 51.1142 83.1444C51.5647 83.0328 52.0251 82.9649 52.4888 82.9416C53.029 82.907 53.6678 82.8896 54.4054 82.8896H54.7539C55.3718 82.8896 55.9131 82.9029 56.3777 82.9295C56.7797 82.9494 57.1797 82.998 57.5747 83.0751C57.8636 83.129 58.1426 83.226 58.4023 83.3628C58.6113 83.4732 58.7905 83.6319 58.925 83.8256C59.0582 84.03 59.1478 84.2595 59.1881 84.4999C59.2402 84.8027 59.2647 85.1096 59.2613 85.4168V85.7235H56.9962V85.6265C57.0006 85.4697 56.9715 85.3137 56.9109 85.1689C56.84 85.033 56.7216 84.9276 56.5781 84.8725C56.3548 84.7865 56.1199 84.734 55.8811 84.7165C55.5815 84.6876 55.1865 84.6726 54.6964 84.6714H54.4977C54.0529 84.6714 53.673 84.679 53.3583 84.694C53.0939 84.7031 52.8308 84.7362 52.5725 84.7928C52.3933 84.8309 52.2242 84.9059 52.0759 85.0129C51.9491 85.1131 51.8536 85.2472 51.8006 85.3994C51.7349 85.5955 51.6963 85.7996 51.6856 86.0061C51.6682 86.247 51.6595 86.5364 51.6595 86.8727V87.0148C51.6595 87.3459 51.6682 87.6284 51.6856 87.8641C51.6967 88.0666 51.7354 88.2666 51.8006 88.4586C51.8537 88.6099 51.9492 88.7428 52.0759 88.8417C52.2242 88.9487 52.3933 89.0237 52.5725 89.0618C52.8309 89.1183 53.0939 89.1514 53.3583 89.1606C53.673 89.1768 54.0529 89.1843 54.4977 89.1831H54.6964C55.0588 89.1831 55.3706 89.1831 55.632 89.1641C55.8933 89.145 56.1146 89.1294 56.2941 89.1017C56.4417 89.0811 56.5858 89.0409 56.7227 88.9821C56.8205 88.9387 56.906 88.872 56.9718 88.788C57.0319 88.7077 57.0719 88.6145 57.0886 88.5158C57.1079 88.3943 57.1172 88.2714 57.1165 88.1484V87.9265H54.0343V86.3839H59.3536V88.1588C59.3574 88.4971 59.3323 88.8352 59.2787 89.1693C59.2357 89.4341 59.1435 89.6886 59.0069 89.9198C58.8754 90.131 58.6965 90.309 58.4842 90.4398C58.2234 90.5945 57.9393 90.7063 57.6426 90.7708C57.2414 90.861 56.8336 90.9189 56.423 90.9441C55.9491 90.9788 55.3985 90.9961 54.7678 90.9961L54.4071 90.9996Z" fill="white"/>
<path fill-rule="evenodd" clip-rule="evenodd" d="M63.3441 90.9129H60.9902V82.9814H63.3441V90.9129Z" fill="white"/>
<path fill-rule="evenodd" clip-rule="evenodd" d="M8.89954 78.7182C7.76122 78.7182 6.76345 78.6876 5.90623 78.6264C5.1591 78.5829 4.41675 78.4792 3.68651 78.3161C3.14306 78.1994 2.62151 77.9982 2.14107 77.7199C1.74719 77.4839 1.41284 77.1614 1.16363 76.777C0.906544 76.3646 0.732014 75.9067 0.649641 75.4285C0.542219 74.8256 0.492051 74.2139 0.499801 73.6016V64.5886H4.62911V72.2705C4.62911 72.7454 4.64595 73.1533 4.67963 73.4942C4.70329 73.7916 4.77202 74.0838 4.88349 74.3608C4.97757 74.5904 5.13082 74.7913 5.32778 74.9432C5.55842 75.108 5.81955 75.2258 6.09614 75.2898C6.48131 75.3868 6.87533 75.4449 7.27221 75.4632C7.73915 75.4892 8.29321 75.503 8.93961 75.503H9.28808C9.93274 75.503 10.488 75.488 10.9537 75.458C11.3505 75.4381 11.7447 75.383 12.1315 75.2933C12.4089 75.2315 12.6705 75.1135 12.8999 74.9467C13.0943 74.7926 13.2465 74.5923 13.3425 74.3643C13.4554 74.0876 13.5247 73.7953 13.5481 73.4976C13.5806 73.151 13.5968 72.7466 13.5968 72.2844V64.5869H17.7279V73.5999C17.7339 74.21 17.6873 74.8194 17.5885 75.4216C17.5121 75.9009 17.3422 76.3607 17.0885 76.7753C16.8432 77.1593 16.5123 77.4819 16.1215 77.7181C15.6424 77.9968 15.122 78.1981 14.5795 78.3144C13.8464 78.4779 13.1011 78.5816 12.3511 78.6247C11.4857 78.6847 10.4781 78.7154 9.32815 78.7165L8.89954 78.7182Z" fill="white"/>
<path fill-rule="evenodd" clip-rule="evenodd" d="M38.9621 78.5462H32.7873L24.6576 68.0946H24.5775V78.5462H20.5283V64.5674H26.8007L34.831 75.0294H34.9095V64.5674H38.9586V78.5392L38.9621 78.5462Z" fill="white"/>
<path fill-rule="evenodd" clip-rule="evenodd" d="M51.1353 71.6254C51.8479 71.6254 52.4141 71.6046 52.8375 71.5612C53.1743 71.5417 53.5026 71.4488 53.7993 71.2891C54.0113 71.1618 54.1651 70.9572 54.2279 70.7189C54.3029 70.4015 54.3368 70.0759 54.3289 69.75V69.5091C54.3364 69.1871 54.3024 68.8656 54.2279 68.5523C54.1974 68.4344 54.1433 68.3238 54.0687 68.2273C53.9942 68.1308 53.9007 68.0503 53.794 67.9907C53.4936 67.8372 53.1642 67.748 52.8271 67.729C52.4037 67.6857 51.8409 67.6649 51.1353 67.6649H45.9884V71.6254H51.1353ZM58.4879 78.5463H54.4073V77.4127C54.4103 77.0609 54.394 76.7091 54.3586 76.3589C54.3345 76.0992 54.2631 75.8461 54.1477 75.6119C54.0444 75.412 53.89 75.2429 53.7 75.1214C53.4652 74.9807 53.2066 74.8838 52.9368 74.8354C52.5519 74.7597 52.1616 74.7144 51.7695 74.7002C51.3048 74.6759 50.7543 74.6638 50.1177 74.6638H45.9884V78.5463H41.8975V64.5675H52.7922C53.7376 64.5521 54.6824 64.6228 55.6148 64.779C56.2435 64.8746 56.8406 65.1169 57.3571 65.4861C57.7839 65.82 58.0932 66.28 58.2405 66.8C58.4173 67.4588 58.4994 68.1392 58.4844 68.8209V69.3115C58.4902 69.7947 58.447 70.2772 58.3554 70.7518C58.2821 71.1286 58.1398 71.4887 57.9355 71.8143C57.7432 72.111 57.4881 72.3624 57.1881 72.5509C56.8405 72.7613 56.4592 72.9108 56.0608 72.9929V73.0726C56.474 73.133 56.8798 73.2358 57.2717 73.3794C57.5683 73.4874 57.8268 73.6789 58.0157 73.9306C58.2122 74.2171 58.3387 74.5453 58.3851 74.8891C58.4588 75.39 58.492 75.896 58.4844 76.4023V78.5394L58.4879 78.5463Z" fill="white"/>
<path fill-rule="evenodd" clip-rule="evenodd" d="M76.4317 78.5462H61.1689V64.5674H76.1913V67.6578H65.2582V70.0341H75.6128V72.9529H65.2582V75.3604H76.4317V78.5392V78.5462Z" fill="white"/>
<path fill-rule="evenodd" clip-rule="evenodd" d="M90.2309 73.1319L87.3682 67.5248H87.2672L84.4255 73.1319H90.2309ZM97.458 78.557H93.0047L91.7171 76.049H82.9584L81.6918 78.557H77.2715L84.814 64.5869H89.8824L97.458 78.557Z" fill="white"/>
<path fill-rule="evenodd" clip-rule="evenodd" d="M112.5 78.557H98.9727V64.5869H103.102V75.3141H112.5V78.564V78.557Z" fill="white"/>
<path fill-rule="evenodd" clip-rule="evenodd" d="M73.3831 32.3293C72.8935 34.6796 70.7138 40.7079 63.7672 43.9734L60.9795 40.8535L56.2752 45.5611C53.5967 45.5252 50.9627 44.8737 48.5792 43.6575C46.1957 42.4413 44.1272 40.6932 42.5352 38.55C43.0357 38.7049 43.5526 38.8014 44.0755 38.8377C44.8456 38.8516 45.6801 38.5708 45.6801 37.2778V24.5816C45.6916 24.2549 45.626 23.9301 45.4884 23.6332C45.3508 23.3363 45.1451 23.0757 44.8879 22.8722C44.6307 22.6688 44.3291 22.5282 44.0074 22.4617C43.6856 22.3952 43.3527 22.4048 43.0353 22.4895C40.8574 22.9853 39.1151 28.3948 39.1151 28.3948C39.0908 25.8967 39.6138 23.4234 40.6477 21.1467C41.6815 18.8701 43.2014 16.8448 45.1017 15.2116C48.3459 12.4765 51.5152 11.5301 53.9231 11.1592C51.5448 12.5077 50.2067 14.7089 50.2067 16.5566C50.2067 19.5187 52.0048 19.1686 52.5379 18.7318V35.8773C52.628 36.0927 52.7451 36.296 52.8864 36.4822C53.1246 36.8099 53.4382 37.0759 53.8011 37.2581C54.164 37.4403 54.5655 37.5332 54.9719 37.5291C56.7735 37.5291 59.11 35.4839 59.11 35.4839V21.6004C59.11 20.1878 58.0402 18.4805 56.9686 17.8981C56.9686 17.8981 58.9514 17.5515 60.4847 18.7145C60.7722 18.3642 61.0781 18.0292 61.4011 17.7109C64.9659 14.2271 68.3303 13.2391 71.132 12.7434C71.132 12.7434 66.0322 16.7299 66.0322 22.0684C66.0322 26.0427 66.135 35.7334 66.135 35.7334C68.0324 37.5464 70.8428 34.9292 73.3831 32.3293Z" fill="white"/>
<path fill-rule="evenodd" clip-rule="evenodd" d="M56.5002 2.12612e-07C50.8808 0.000343031 45.3877 1.65836 40.7156 4.76437C36.0434 7.87039 32.4021 12.2849 30.2519 17.4497C28.1018 22.6145 27.5395 28.2975 28.6361 33.7802C29.7328 39.2629 32.439 44.2989 36.4128 48.2515C40.3865 52.2042 45.4492 54.8958 50.9607 55.986C56.4722 57.0763 62.1849 56.5162 67.3763 54.3766C72.5678 52.237 77.005 48.614 80.1267 43.9658C83.2483 39.3176 84.9143 33.8528 84.914 28.2627C84.914 24.5509 84.179 20.8754 82.751 17.4462C81.3231 14.017 79.2301 10.9012 76.5916 8.27671C73.953 5.65224 70.8207 3.5705 67.3734 2.15037C63.9261 0.730244 60.2314 -0.000455055 56.5002 2.12612e-07ZM56.5002 55.3969C51.1054 55.3973 45.8317 53.8062 41.3459 50.8248C36.8602 47.8435 33.3639 43.6058 31.2991 38.6477C29.2344 33.6896 28.694 28.2337 29.7463 22.9701C30.7985 17.7064 33.3962 12.8714 37.2107 9.07642C41.0253 5.28145 45.8854 2.69699 51.1765 1.64986C56.4676 0.602739 61.952 1.13999 66.9361 3.19367C71.9203 5.24735 76.1803 8.72522 79.1775 13.1875C82.1747 17.6497 83.7745 22.8959 83.7745 28.2627C83.7745 35.4588 80.901 42.3603 75.7861 47.4489C70.6713 52.5375 63.7339 55.3965 56.5002 55.3969Z" fill="white"/>
</g>
<defs>
<clipPath id="clip0_5793_6993">
<rect width="112" height="91" fill="white" transform="translate(0.5)"/>
</clipPath>
</defs>
</svg>
